<svg xmlns="http://www.w3.org/2000/svg" xmlns:xlink="http://www.w3.org/1999/xlink" viewBox="0 0 29 22" style="enable-background:new 0 0 29 22" xml:space="preserve">
    <path id="a" d="M27.36 9.44H5.73c-.04 0-.06-.04-.03-.07l6.96-6.67c.66-.63.66-1.62 0-2.25-.66-.61-1.69-.61-2.34 0L.49 9.87c-.3.29-.49.69-.49 1.14 0 .45.19.85.49 1.15l9.71 9.31c.67.64 1.77.75 2.44.11.66-.63.67-1.62.01-2.25L5.7 12.68c-.03-.03-.01-.07.03-.07h21.63c.91 0 1.64-.72 1.64-1.59 0-.88-.73-1.58-1.64-1.58z" fill="#fff"/>
</svg>