
<svg xmlns="http://www.w3.org/2000/svg" viewBox="0 0 300 300" x="0" y="150px">
    <defs>
        <linearGradient id="a" gradientUnits="userSpaceOnUse" x1="150.34" y1="41.251" x2="150.34" y2="257.894">
            <stop offset="0" style="stop-color:#07d2b3"/>
            <stop offset="1" style="stop-color:#0e49f5"/>
        </linearGradient>
    </defs>
    <path d="M150.38 41.25s-16.84-.39-16.84 18.91v178.52s-.78 19.22 16.84 19.22 16.77-19.58 16.77-19.58l.01-178.39c-.01-.01.06-18.68-16.78-18.68z" style="fill:url(#a)"/>
    <defs>
        <linearGradient id="b" gradientUnits="userSpaceOnUse" x1="102.157" y1="89.443" x2="102.157" y2="219.248">
            <stop offset="0" style="stop-color:#07d2b3"/>
            <stop offset="1" style="stop-color:#0e49f5"/>
        </linearGradient>
    </defs>
    <path d="M85.52 103.93s1.84-14.49 16.74-14.49 16.53 14.49 16.53 14.49v101.03s-1.63 14.29-16.63 14.29-16.63-14.18-16.63-14.18V103.93z" style="fill:url(#b)"/>
    <defs>
        <linearGradient id="c" gradientUnits="userSpaceOnUse" x1="198.529" y1="89.443" x2="198.529" y2="219.248">
            <stop offset="0" style="stop-color:#07d2b3"/>
            <stop offset="1" style="stop-color:#0e49f5"/>
        </linearGradient>
    </defs>
    <path d="M181.9 103.93s1.84-14.49 16.74-14.49 16.53 14.49 16.53 14.49v101.03s-1.63 14.29-16.63 14.29-16.63-14.18-16.63-14.18V103.93z" style="fill:url(#c)"/>
    <defs>
        <linearGradient id="d" gradientUnits="userSpaceOnUse" x1="54.04" y1="118.221" x2="54.04" y2="185.674">
            <stop offset="0" style="stop-color:#07d2b3"/>
            <stop offset="1" style="stop-color:#0e49f5"/>
        </linearGradient>
    </defs>
    <path d="M37.24 137.61s-1.01-19.39 16.95-19.39 16.63 19.39 16.63 19.39l.02 33.68s-1.45 14.39-16.81 14.39-16.8-14.39-16.8-14.39v-33.68z" style="fill:url(#d)"/>
    <defs>
        <linearGradient id="e" gradientUnits="userSpaceOnUse" x1="246.701" y1="118.221" x2="246.701" y2="185.674">
            <stop offset="0" style="stop-color:#07d2b3"/>
            <stop offset="1" style="stop-color:#0e49f5"/>
        </linearGradient>
    </defs>
    <path d="M229.9 137.61s-1.01-19.39 16.95-19.39 16.63 19.39 16.63 19.39l.02 33.68s-1.45 14.39-16.81 14.39-16.8-14.39-16.8-14.39v-33.68z" style="fill:url(#e)"/>
</svg>